<?xml version="1.0" encoding="UTF-8"?>
<svg id="Layer_2" xmlns="http://www.w3.org/2000/svg" viewBox="0 0 281.82 281.82">
  <defs>
    <style>
      .cls-1 {
        fill: #d1d3d4;
      }

      .cls-2 {
        fill: #4068b2;
      }

      .cls-3 {
        fill: #fff;
      }
    </style>
  </defs>
  <g id="Layer_1-2" data-name="Layer_1">
    <path class="cls-2" d="M140.91,0C63.09,0,0,63.09,0,140.91s63.09,140.91,140.91,140.91h0V0h0Z"/>
    <path class="cls-1" d="M281.82,140.91C281.82,63.09,218.73,0,140.91,0v281.82c77.82,0,140.91-63.09,140.91-140.91Z"/>
    <polygon class="cls-3" points="140.91 13.94 112.4 101.67 20.16 101.67 94.79 155.9 66.28 243.63 140.91 189.41 140.91 189.41 140.91 13.94 140.91 13.94"/>
    <polygon class="cls-3" points="187.03 155.9 261.66 101.67 169.42 101.67 140.91 13.94 140.91 189.41 215.54 243.63 187.03 155.9"/>
  </g>
</svg>